<?xml version="1.0" encoding="UTF-8" standalone="no"?>
<!-- Created with Inkscape (http://www.inkscape.org/) -->

<svg
   xmlns:dc="http://purl.org/dc/elements/1.1/"
   xmlns:cc="http://creativecommons.org/ns#"
   xmlns:rdf="http://www.w3.org/1999/02/22-rdf-syntax-ns#"
   xmlns:svg="http://www.w3.org/2000/svg"
   xmlns="http://www.w3.org/2000/svg"
   xmlns:sodipodi="http://sodipodi.sourceforge.net/DTD/sodipodi-0.dtd"
   xmlns:inkscape="http://www.inkscape.org/namespaces/inkscape"
   sodipodi:docname="robobenkleinBird.svg"
   inkscape:version="0.91 r13725"
   version="1.1"
   id="svg2985"
   height="900"
   width="900"
   inkscape:export-filename="/home/robo/Pictures/Robobenklein/v2/robobenkleinBirdn.png"
   inkscape:export-xdpi="90"
   inkscape:export-ydpi="90">
  <sodipodi:namedview
     id="base"
     pagecolor="#ffffff"
     bordercolor="#666666"
     borderopacity="1.0"
     inkscape:pageopacity="0"
     inkscape:pageshadow="2"
     inkscape:zoom="0.84852814"
     inkscape:cx="716.23358"
     inkscape:cy="409.6194"
     inkscape:current-layer="layer1"
     inkscape:document-units="px"
     showgrid="false"
     inkscape:window-width="1280"
     inkscape:window-height="1000"
     inkscape:window-x="1366"
     inkscape:window-y="24"
     inkscape:window-maximized="1"
     fit-margin-top="0"
     fit-margin-left="0"
     fit-margin-right="0"
     fit-margin-bottom="0" />
  <defs
     id="defs2987">
    <clipPath
       id="clipPath">
      <path
         style="fill:#000094"
         inkscape:connector-curvature="0"
         d="m 806.6382,288.2157 c 50.72427,-13.46985 103.63287,-3.94387 153.44701,8.73719 -78.39207,-13.65187 -148.83572,34.16001 -226.07497,33.79597 -20.81151,-2.73038 -41.25897,-7.76639 -61.8278,-12.01365 46.11298,-3.82253 90.10234,-18.50587 134.45576,-30.51951 z"
         id="path10" />
    </clipPath>
    <filter
       y="-0.5"
       x="-0.5"
       width="2"
       height="2"
       id="filter">
      <feGaussianBlur
         id="feGaussianBlur46847"
         stdDeviation="6.80000019073" />
    </filter>
    <clipPath
       id="clipPath5">
      <path
         style="fill:#0000ff"
         inkscape:connector-curvature="0"
         d="m 1179.7286,272.13683 c 9.526,-1.27417 19.1127,-2.54836 28.6386,-3.82253 44.1714,68.92677 5.4608,150.71665 8.4338,225.40755 4.672,43.86801 15.9576,86.82589 20.8116,130.6939 -14.6834,-0.60674 -29.6701,0.9708 -44.1107,-2.24496 -5.4608,-7.40236 -10.8002,-15.22942 -13.5912,-24.08798 -2.5484,-32.21841 -7.2204,-64.13345 -11.8923,-96.04849 -6.3102,-42.77585 5.218,-85.06632 11.0428,-127.17475 4.9147,-34.03866 3.0944,-68.56274 0.6674,-102.72274 z"
         id="path8" />
    </clipPath>
    <filter
       y="-0.5"
       x="-0.5"
       width="2"
       height="2"
       id="filterR">
      <feGaussianBlur
         id="feGaussianBlur46852"
         stdDeviation="6.80000019073" />
    </filter>
    <clipPath
       id="clipPathr">
      <path
         style="fill:#0000cc"
         inkscape:connector-curvature="0"
         d="m 341.26111,484.37791 c 28.33521,-0.4854 56.30637,4.91467 84.58091,5.70344 14.86537,42.95789 33.4926,84.52024 48.17594,127.47814 14.62268,55.82097 -3.82253,122.74548 38.89266,169.16184 48.78269,47.99391 115.82854,72.992 181.6609,87.12926 -21.90368,6.7956 -44.4141,14.86537 -67.77397,11.52825 -55.0322,-6.85627 -107.8801,-28.15318 -154.11444,-58.49068 -29.06331,-19.05194 -55.57828,-45.50623 -65.34695,-79.7876 -9.4653,-34.09933 -5.94615,-70.01892 -11.34622,-104.78568 -7.58437,-51.33104 -30.88357,-98.35414 -50.17822,-145.98401 -1.15282,-2.97308 -3.39779,-8.97989 -4.55061,-11.95296 z"
         id="path46" />
    </clipPath>
    <filter
       y="-0.5"
       x="-0.5"
       width="2"
       height="2"
       id="filterk">
      <feGaussianBlur
         id="feGaussianBlur46857"
         stdDeviation="6.80000019073" />
    </filter>
    <clipPath
       id="clipPathr5">
      <path
         style="fill:#0000ff"
         inkscape:connector-curvature="0"
         d="m 345.81172,496.33087 c 19.29465,47.62987 42.59385,94.65297 50.17822,145.98401 5.40007,34.76676 1.88092,70.68635 11.34622,104.78568 9.76867,34.28137 36.28364,60.73566 65.34695,79.7876 46.23434,30.3375 99.08224,51.63441 154.11444,58.49068 23.35987,3.33712 45.87029,-4.73265 67.77397,-11.52825 26.63631,-1.45619 53.33329,-1.75956 79.72692,-5.8248 16.07886,5.03603 35.25215,11.16421 40.2275,29.42737 17.9598,50.90632 28.94196,103.99694 47.38717,154.72124 l -0.12127,3.7618 c -42.83654,10.1327 -87.61468,8.9799 -130.45122,19.3553 -44.83881,9.2226 -93.25744,27.1217 -137.67152,6.4923 -52.18049,-25.9083 -85.67307,-76.4505 -132.33213,-110.00379 -44.05004,-35.98025 -103.39016,-51.20967 -139.30976,-97.14064 -24.51269,-31.55099 -19.416,-73.7201 -12.55972,-110.36778 9.34394,-46.71974 21.41826,-92.83272 37.49714,-137.67153 3.64049,-43.32194 0.18202,-86.88658 -1.15283,-130.26919 z"
         id="path58" />
    </clipPath>
    <filter
       y="-0.5"
       x="-0.5"
       width="2"
       height="2"
       id="filter0">
      <feGaussianBlur
         id="feGaussianBlur46862"
         stdDeviation="6.80000019073" />
    </filter>
    <clipPath
       id="clipPathl">
      <path
         style="fill:#0000ff"
         inkscape:connector-curvature="0"
         d="m 711.8032,107.22223 c 34.52407,-13.227147 68.138,-34.160023 106.4846,-31.672349 30.15545,-0.303372 57.03448,14.683357 84.58091,24.816069 58.18732,20.1441 102.05529,66.56046 158.54369,90.2237 50.4816,22.5711 111.0959,31.36896 146.9548,77.72465 -9.5259,1.27417 -19.1126,2.54836 -28.6386,3.82253 2.427,34.16 4.2473,68.68408 -0.6674,102.72274 -5.8248,42.10843 -17.353,84.3989 -11.0428,127.17475 4.6719,31.91504 9.3439,63.83008 11.8923,96.04849 -16.807,-23.96662 -31.3083,-49.38943 -46.4164,-74.32684 -10.8001,-15.2901 -9.4653,-34.70609 -14.6227,-51.99846 -7.1596,-25.90821 -13.1664,-52.05913 -19.1733,-78.21005 -26.3936,-53.21195 -82.2146,-86.94724 -139.61309,-96.59457 -49.81414,-12.68106 -102.72274,-22.20704 -153.44701,-8.73719 -44.35342,12.01364 -88.34278,26.69698 -134.45576,30.51951 l -5.15737,0.0607 c -26.15092,-57.64127 -52.05913,-115.82857 -83.9135,-170.5574 42.77587,-14.13728 87.3113,-22.87448 128.69163,-41.01629 z"
         id="path6" />
    </clipPath>
    <filter
       y="-0.5"
       x="-0.5"
       width="2"
       height="2"
       id="filterY">
      <feGaussianBlur
         id="feGaussianBlur46867"
         stdDeviation="6.80000019073" />
    </filter>
    <clipPath
       id="clipPathg">
      <path
         style="fill:#0000cc"
         inkscape:connector-curvature="0"
         d="m 774.29844,868.02579 c 32.40044,-4.97535 65.34695,-4.12589 97.86874,-0.91011 16.68561,57.39853 34.70608,114.49369 49.99618,172.31692 -18.4452,5.7035 -36.95106,11.7103 -56.12436,14.4407 l -4.12589,-1.6989 C 843.4679,1001.4501 832.48574,948.35948 814.52594,897.45316 809.55059,879.19 790.3773,873.06182 774.29844,868.02579 Z"
         id="path110" />
    </clipPath>
    <filter
       y="-0.5"
       x="-0.5"
       width="2"
       height="2"
       id="filterI">
      <feGaussianBlur
         id="feGaussianBlur46872"
         stdDeviation="6.80000019073" />
    </filter>
    <filter
       inkscape:label="Glow"
       inkscape:menu="Shadows and Glows"
       inkscape:menu-tooltip="Glow of object's own color at the edges"
       x="0"
       y="0"
       width="1"
       height="1"
       id="filter48702"
       style="color-interpolation-filters:sRGB">
      <feColorMatrix
         values="1"
         in="SourceGraphic"
         type="saturate"
         result="result2"
         id="feColorMatrix48704" />
      <feFlood
         flood-color="rgb(254,102,0)"
         flood-opacity="1"
         result="result1"
         id="feFlood48706" />
      <feBlend
         in2="result2"
         mode="multiply"
         in="result1"
         result="result3"
         id="feBlend48708" />
      <feComposite
         operator="in"
         result="fbSourceGraphic"
         in2="SourceGraphic"
         id="feComposite48710" />
      <feColorMatrix
         result="fbSourceGraphicAlpha"
         in="fbSourceGraphic"
         values="0 0 0 -1 0 0 0 0 -1 0 0 0 0 -1 0 0 0 0 1 0"
         id="feColorMatrix48752" />
      <feGaussianBlur
         id="feGaussianBlur48754"
         stdDeviation="6"
         in="fbSourceGraphic"
         result="result0" />
      <feDiffuseLighting
         id="feDiffuseLighting48756"
         diffuseConstant="1"
         surfaceScale="10"
         result="result5">
        <feDistantLight
           id="feDistantLight48758"
           elevation="25"
           azimuth="235" />
      </feDiffuseLighting>
      <feComposite
         id="feComposite48760"
         in2="fbSourceGraphic"
         k1="1"
         in="result5"
         result="fbSourceGraphic"
         operator="arithmetic"
         k2="0"
         k3="0.6"
         k4="0" />
      <feColorMatrix
         result="fbSourceGraphicAlpha"
         in="fbSourceGraphic"
         values="0 0 0 -1 0 0 0 0 -1 0 0 0 0 -1 0 0 0 0 1 0"
         id="feColorMatrix48762" />
      <feGaussianBlur
         id="feGaussianBlur48764"
         stdDeviation="6"
         in="fbSourceGraphic"
         result="result0" />
      <feDiffuseLighting
         id="feDiffuseLighting48766"
         diffuseConstant="1"
         surfaceScale="10"
         result="result5">
        <feDistantLight
           id="feDistantLight48768"
           elevation="25"
           azimuth="235" />
      </feDiffuseLighting>
      <feComposite
         id="feComposite48770"
         in2="fbSourceGraphic"
         k1="1"
         in="result5"
         result="fbSourceGraphic"
         operator="arithmetic"
         k2="0"
         k3="0.6"
         k4="0" />
      <feColorMatrix
         result="fbSourceGraphicAlpha"
         in="fbSourceGraphic"
         values="0 0 0 -1 0 0 0 0 -1 0 0 0 0 -1 0 0 0 0 1 0"
         id="feColorMatrix48972" />
      <feGaussianBlur
         id="feGaussianBlur48974"
         stdDeviation="5"
         result="result91"
         in="fbSourceGraphic" />
      <feComposite
         id="feComposite48976"
         in2="result91"
         in="fbSourceGraphic"
         operator="over" />
    </filter>
  </defs>
  <metadata
     id="metadata2990">
    <rdf:RDF>
      <cc:Work
         rdf:about="">
        <dc:format>image/svg+xml</dc:format>
        <dc:type
           rdf:resource="http://purl.org/dc/dcmitype/StillImage" />
        <dc:title></dc:title>
      </cc:Work>
    </rdf:RDF>
  </metadata>
  <g
     id="layer1"
     inkscape:label="Layer 1"
     inkscape:groupmode="layer"
     transform="translate(-429.34968,-113.19842)">
    <rect
       style="opacity:1;fill:#0f0000;fill-opacity:1;stroke:#008100;stroke-width:0.80000001;stroke-linecap:butt;stroke-linejoin:miter;stroke-miterlimit:4;stroke-dasharray:none;stroke-dashoffset:0;stroke-opacity:0.72997036"
       id="rect4212"
       width="921.59583"
       height="923.95288"
       x="415.20755"
       y="103.3877" />
    <flowRoot
       xml:space="preserve"
       id="flowRoot47918"
       style="font-style:normal;font-weight:normal;font-size:40px;line-height:125%;font-family:Sans;letter-spacing:0px;word-spacing:0px;fill:#000000;fill-opacity:1;stroke:none;stroke-width:1px;stroke-linecap:butt;stroke-linejoin:miter;stroke-opacity:1"><flowRegion
         id="flowRegion47920"><rect
           id="rect47922"
           width="626.66669"
           height="636.66669"
           x="470"
           y="320" /></flowRegion><flowPara
         id="flowPara47924" /></flowRoot>    <g
       transform="translate(507.31168,-151.10814)"
       id="layer1-3"
       inkscape:label="Layer 1">
      <path
         inkscape:connector-curvature="0"
         id="path3366"
         d="M 351.66117,1051.9398 C 287.86737,1048.3692 227.88566,1029.3119 173.92232,995.4686 133.8757,970.35325 98.185057,936.89619 70.258338,898.2919 33.657951,847.69741 10.595269,789.29193 2.7181068,727.24834 0.67021417,711.1184 0.01009102,699.78884 9.0888143e-5,680.60009 -0.0126021,656.24145 1.3023902,639.90849 5.0804368,617.49848 19.690415,530.83753 65.453387,451.31712 133.32814,394.64793 c 54.12583,-45.19037 119.73895,-74.09011 188.99773,-83.24494 17.58171,-2.32409 29.82564,-3.07552 49.94814,-3.06496 16.33266,0.009 21.82054,0.23656 35.07769,1.45694 31.14989,2.868 63.20754,10.11121 92.76907,20.9614 77.12867,28.30823 143.47347,82.04884 187.03186,151.49836 29.18742,46.53723 47.35786,97.45816 54.1305,151.69707 3.12016,24.98683 3.65224,53.63083 1.46384,78.83183 -4.28449,49.34779 -18.06958,96.50878 -40.95808,140.12568 -31.60432,60.22621 -79.36513,111.00248 -137.31097,145.98086 -52.92793,31.94933 -111.22215,49.81373 -173.21858,53.08303 -7.92557,0.4179 -31.89236,0.3976 -39.59817,-0.033 z m 193.6689,-150.1819 c 0.30311,-1.61776 -0.40837,-18.13825 -1.1208,-26.02309 -2.43194,-26.90293 -8.30752,-55.78002 -16.85788,-82.85348 -8.09729,-25.6397 -24.97072,-58.34895 -46.71121,-90.55276 l -5.22743,-7.74303 4.30218,-2.46501 c 11.53937,-6.61072 20.36771,-13.40931 30.17786,-23.23953 8.7253,-8.74305 14.33091,-16.06638 19.5399,-25.52715 10.91215,-19.81891 17.43192,-48.05352 15.36459,-66.53707 -2.94143,-26.29936 -13.25936,-50.41127 -30.01666,-70.14513 -4.33937,-5.11003 -12.44287,-13.00874 -17.56644,-17.12268 -4.65107,-3.73415 -13.6291,-9.76557 -18.86348,-12.6723 -13.4123,-7.4486 -29.90794,-12.93659 -45.68527,-15.19881 -9.06915,-1.30059 -12.76408,-1.34471 -101.9783,-1.2215 l -87.6944,0.12149 -3.52968,0.81199 c -13.15143,3.0252 -23.90854,9.30315 -31.10479,18.15294 -4.41909,5.43511 -6.937,10.44757 -8.6804,17.28232 l -0.80321,3.14893 0,179.54133 c 0,151.28762 0.0768,179.93974 0.4992,182.07241 1.37711,6.97559 4.74547,14.58851 8.90989,20.13769 2.80686,3.73923 8.4962,9.23926 12.18381,11.77743 5.39818,3.71581 11.82767,6.44938 19.16883,8.1492 l 3.35635,0.77708 89.14078,0.19577 c 49.02739,0.10856 117.00098,0.23404 151.05277,0.28171 l 61.91203,0.0867 0.23176,-1.23491 z m -274.3113,-294.5594 0,-15.91692 100.17041,0 c 64.97904,0 100.17014,0.12401 100.17014,0.35326 0,0.68814 -1.72813,4.92935 -3.17145,7.78291 -2.9777,5.88772 -7.6988,11.5228 -13.04907,15.5755 -3.66035,2.77266 -9.87661,5.92539 -13.97524,7.08843 l -2.89304,0.82088 -83.62596,0.10667 -83.62579,0.10655 0,-15.91703 z m 0,-42.8572 0,-15.00691 83.30756,0 c 90.87979,0 86.0451,-0.10677 92.62338,2.03735 9.7258,3.17029 17.17503,9.76194 21.52404,19.04753 1.16178,2.4799 2.88557,7.64803 2.88557,8.65054 0,0.15316 -45.0767,0.27831 -100.17014,0.27831 l -100.17041,0 0,-15.00682 z"
         style="fill:#0000ff;fill-opacity:1" />
    </g>
    <path
       inkscape:connector-curvature="0"
       id="path4706"
       d="m 1030.1609,1004.8882 c -2.4888,-1.9779 -7.0328,-4.2276 -10.0977,-4.99931 -3.0649,-0.77175 -5.9204,-1.96599 -6.3455,-2.65387 -0.4251,-0.68787 -2.6719,-1.25068 -4.9928,-1.25068 -8.194,0 -10.99862,-2.1265 -30.78573,-23.34212 -3.62721,-3.88907 -6.0969,-13.21812 -6.0969,-23.03052 0,-8.07624 -0.23289,-8.74439 -4.94589,-14.18985 -3.02336,-3.49321 -5.25258,-7.53138 -5.73487,-10.38853 -0.43393,-2.57068 -1.58328,-6.4465 -2.5541,-8.6129 -0.97083,-2.1664 -1.76514,-4.90916 -1.76514,-6.09501 0,-3.17885 -8.36408,-23.78874 -13.26269,-32.68052 -3.57582,-6.49072 -4.0507,-8.23863 -2.99365,-11.01888 2.24189,-5.89661 1.37669,-8.06379 -6.37827,-15.97664 -5.4486,-5.55952 -8.99884,-10.71563 -12.39914,-18.00762 -3.15174,-6.75898 -5.96224,-10.96061 -8.30287,-12.41263 -6.42247,-3.98416 -11.53554,-9.56488 -12.36558,-13.49651 -0.44974,-2.1303 -1.98972,-5.14922 -3.42219,-6.70871 -1.43247,-1.55949 -4.60611,-6.79399 -7.05255,-11.63224 -2.44643,-4.83825 -8.37753,-13.24294 -13.18024,-18.6771 -8.73217,-9.8803 -8.73217,-9.8803 -16.18838,-9.10096 -4.10093,0.42862 -8.8902,1.52767 -10.64283,2.44232 -5.78497,3.01903 -16.48805,1.2331 -22.51586,-3.75702 -1.05641,-0.87455 -5.2307,-2.59316 -9.2762,-3.81914 -4.1169,-1.24762 -8.66614,-3.64332 -10.33232,-5.44117 -2.78242,-3.00227 -3.80923,-3.22959 -15.7174,-3.47957 -12.7405,-0.26745 -12.7405,-0.26745 -16.84452,-5.10857 -2.2572,-2.66261 -4.44667,-5.96611 -4.86547,-7.34111 -2.49663,-8.19679 -7.46206,-15.63338 -14.84415,-22.23169 -4.44989,-3.97743 -10.1993,-10.44618 -12.77649,-14.375 -2.57717,-3.92883 -7.23466,-9.70188 -10.34999,-12.82901 -6.23801,-6.26169 -16.781,-22.29688 -18.9811,-28.869 -0.77242,-2.30742 -2.44017,-5.3445 -3.7061,-6.74908 -1.26592,-1.40457 -2.96552,-4.49832 -3.7769,-6.875 -0.81137,-2.37667 -2.5102,-5.66271 -3.77517,-7.3023 -1.26497,-1.63959 -2.29994,-3.6731 -2.29994,-4.51892 0,-0.84583 -1.10471,-2.94227 -2.45491,-4.65877 -4.16929,-5.3004 -7.3568,-22.02473 -7.4809,-39.25108 -0.0356,-4.94397 -0.89878,-10.90729 -1.93919,-13.39735 -1.13043,-2.70549 -1.875,-8.4139 -1.875,-14.375 0,-5.9611 -0.74458,-11.66952 -1.875,-14.375 -1.03125,-2.46813 -1.875,-6.72813 -1.875,-9.46667 0,-2.73853 -0.7886,-8.00681 -1.75245,-11.70728 -2.25015,-8.6389 -0.84629,-16.65785 4.23414,-24.18562 4.54944,-6.74097 4.59627,-7.35811 0.74964,-9.87852 -2.28564,-1.4976 -4.78989,-1.79575 -10.3125,-1.22775 -9.17001,0.94314 -12.26613,-0.59504 -17.60633,-8.74691 -4.95749,-7.56767 -5.07206,-9.90335 -0.625,-12.74043 1.89062,-1.20615 5.96875,-4.54822 9.0625,-7.42685 3.09375,-2.87861 7.17187,-6.44555 9.0625,-7.92654 1.89062,-1.48097 3.4375,-3.8118 3.4375,-5.17958 0,-3.8591 3.80829,-14.57392 5.75377,-16.18853 0.96043,-0.79707 1.75173,-3.48974 1.75844,-5.98367 0.0125,-4.63663 4.87739,-16.67114 7.35931,-18.20505 0.75817,-0.46857 1.37848,-2.18184 1.37848,-3.80727 0,-1.62542 1.36972,-4.58315 3.04382,-6.57271 4.3674,-5.19035 4.95582,-9.07967 3.10132,-20.49924 -1.60385,-9.8761 -1.57092,-10.24431 1.41895,-15.86411 4.34515,-8.16721 16.39556,-15.15374 26.18591,-15.18194 4.6983,-0.0135 8.1708,0.77025 10.96771,2.47554 2.25099,1.37243 5.79455,2.49533 7.87458,2.49533 4.47993,0 10.56407,2.90002 11.56692,5.51341 0.39169,1.02072 2.49443,2.77752 4.67275,3.90397 2.17833,1.12645 8.98506,7.01549 15.12609,13.08675 9.19197,9.08754 11.29651,11.88549 11.90669,15.82977 0.40765,2.6351 2.14438,7.22197 3.85941,10.19303 2.80045,4.85142 3.0362,6.28453 2.31331,14.0625 -0.7622,8.20097 -0.66669,8.66057 1.79996,8.66057 4.1822,0 19.33533,18.05126 20.64339,24.59157 0.45451,2.27254 4.30741,7.41779 10.00419,13.35983 5.09575,5.31513 9.265,10.20532 9.265,10.8671 0,0.66177 3.06246,4.53441 6.80547,8.60587 7.77727,8.45971 11.51759,15.09043 12.70654,22.52571 0.70493,4.4084 2.16729,6.38272 9.82273,13.26149 4.94697,4.44509 11.5894,9.72763 14.76093,11.73895 5.53999,3.51336 9.65433,9.08254 9.65433,13.06813 0,1.04103 1.70592,4.30335 3.79095,7.24957 2.08501,2.94623 4.65789,6.5872 5.7175,8.09105 2.90261,4.11953 5.3584,14.81603 5.24459,22.84339 -0.0557,3.93081 0.3989,7.99805 1.01031,9.0383 0.61141,1.04025 4.96571,5.29431 9.67622,9.45346 4.71053,4.15915 9.7044,9.445 11.0975,11.74634 1.3931,2.30132 4.14028,6.02267 6.10485,8.26966 1.96458,2.24699 3.94047,5.62199 4.39087,7.5 0.84997,3.54413 1.47193,4.33809 13.93572,17.78958 10.65018,11.49416 13.19888,16.84911 12.12193,25.46876 -0.84697,6.77881 -0.82217,6.84721 3.24487,8.95035 4.80119,2.48279 15.09613,12.3866 17.37951,16.71922 1.27155,2.4127 1.28125,4.29243 0.0486,9.43045 -1.58421,6.60372 -1.34638,12.53285 1.09697,27.34715 1.23125,7.46522 1.1388,8.9978 -0.734,12.16819 -1.83937,3.11383 -1.92062,4.24126 -0.57395,7.9654 1.57933,4.36756 1.1138,9.25354 -2.46581,25.88035 -0.68736,3.19268 -0.88805,7.97393 -0.44597,10.625 0.79967,4.79551 5.77317,15.61848 8.8208,19.19513 0.87871,1.03125 2.75669,4.97753 4.17326,8.76953 1.82954,4.89742 4.75381,9.05005 10.09541,14.33587 4.1359,4.09273 7.5198,8.11156 7.5198,8.93072 0,0.81916 2.2888,4.38491 5.0862,7.92391 3.4371,4.34825 6.1179,9.75473 8.2681,16.67474 3.5596,11.45593 5.7594,15.54811 14.3551,26.7044 3.269,4.2428 6.3003,9.13508 6.7361,10.87171 0.4359,1.73664 2.1659,4.05742 3.8445,5.15727 1.6786,1.09985 5.4714,5.77008 8.4285,10.37828 2.9571,4.60822 6.3587,9.18988 7.5593,10.18149 2.85,2.35403 14.4722,25.97619 14.4722,29.41481 0,1.46149 0.4858,3.19164 1.0794,3.84477 0.5937,0.65312 1.7221,3.10922 2.5075,5.45798 1.8737,5.6029 -0.5706,9.52924 -7.021,11.27829 -5.3171,1.44174 -10.0049,5.38049 -13.8948,11.67451 -1.4631,2.36729 -5.0532,5.9088 -7.9781,7.87004 -2.9249,1.96124 -8.2374,6.2582 -11.8056,9.54884 -3.5683,3.2905 -7.569,5.9828 -8.8907,5.9828 -1.3216,0 -4.4392,-1.6182 -6.9281,-3.5961 z"
       style="fill:#f0a0a0" />
    <path
       inkscape:connector-curvature="0"
       id="path4704"
       d="m 1030.6513,1002.8143 c -2.3738,-1.6761 -7.0078,-3.94151 -10.2978,-5.03428 -3.29,-1.09276 -6.3029,-2.50632 -6.6953,-3.14126 -0.3924,-0.63494 -3.231,-1.15442 -6.308,-1.15442 -4.8517,0 -6.3536,-0.70537 -11.31127,-5.3125 -18.98291,-17.64054 -21.69666,-22.25948 -21.69666,-36.92883 0,-8.44551 -1.28864,-11.85002 -7.37826,-19.49305 -2.47524,-3.10665 -3.87174,-6.27509 -3.87174,-8.78437 0,-2.15874 -0.76394,-5.03453 -1.69765,-6.39062 -0.9337,-1.3561 -2.10611,-4.6919 -2.60536,-7.41287 -1.18612,-6.46449 -9.9266,-27.46098 -14.01799,-33.67411 -2.97407,-4.51642 -3.09198,-5.2223 -1.61809,-9.68823 2.08073,-6.30465 0.57622,-9.61184 -7.7977,-17.1407 -4.74423,-4.26549 -7.5896,-8.35411 -11.048,-15.87539 -3.63001,-7.89448 -5.99923,-11.21107 -10.73488,-15.02731 -7.77167,-6.26282 -10.38688,-9.32357 -10.43874,-12.21715 -0.0229,-1.27606 -1.60909,-4.36981 -3.52491,-6.875 -1.91584,-2.50517 -4.58309,-6.80487 -5.92724,-9.55487 -3.60708,-7.37972 -10.27979,-16.57975 -17.815,-24.56253 -6.66658,-7.06251 -6.66658,-7.06251 -14.408,-6.41885 -4.25779,0.35401 -8.98728,1.42278 -10.50996,2.37503 -5.54687,3.46885 -17.12854,1.38786 -22.57214,-4.05574 -0.9421,-0.9421 -2.6571,-1.72139 -3.81113,-1.73174 -3.84772,-0.0345 -11.41735,-3.24291 -14.51346,-6.15156 -3.78376,-3.55465 -12.98247,-5.40924 -21.59243,-4.35334 -6.22251,0.76311 -6.67639,0.61406 -10.35843,-3.4016 -2.11793,-2.30982 -4.19339,-5.60592 -4.61212,-7.32467 -0.41873,-1.71875 -1.80431,-4.61809 -3.07906,-6.44297 -1.27473,-1.82487 -2.31771,-4.08896 -2.31771,-5.03128 0,-0.94233 -4.2679,-5.91799 -9.48422,-11.05704 -5.21633,-5.13904 -11.70698,-12.57946 -14.42367,-16.53428 -2.71669,-3.95481 -6.24812,-8.04806 -7.84762,-9.0961 -3.18315,-2.08567 -18.63945,-25.57108 -20.13091,-30.58833 -0.51093,-1.71875 -2.54551,-5.34519 -4.52127,-8.05875 -1.97577,-2.71357 -3.60482,-5.80732 -3.62011,-6.875 -0.0153,-1.06769 -1.12777,-3.3475 -2.4722,-5.06625 -1.34442,-1.71875 -2.45691,-3.74963 -2.4722,-4.51307 -0.0153,-0.76343 -1.43405,-3.4603 -3.1528,-5.99301 -1.71875,-2.53272 -3.125,-5.7329 -3.125,-7.11151 0,-1.37861 -0.74024,-4.0255 -1.64497,-5.88199 -1.02344,-2.10005 -1.76797,-9.25435 -1.97048,-18.93461 -0.2185,-10.4455 -0.91034,-16.69018 -2.10501,-19.00043 -1.13083,-2.18677 -1.79569,-7.45101 -1.82384,-14.44081 -0.0289,-7.1704 -0.66618,-12.08745 -1.8307,-14.12457 -0.98253,-1.71875 -1.80635,-5.48818 -1.8307,-8.37652 -0.0244,-2.88833 -0.904,-8.51333 -1.95475,-12.5 -2.47479,-9.38968 -1.46166,-15.58121 3.89308,-23.79176 2.34704,-3.59879 4.26737,-7.34979 4.26737,-8.33555 0,-0.98575 -1.87451,-2.95079 -4.16559,-4.36675 -3.53341,-2.18377 -5.41535,-2.45776 -12.40075,-1.80546 -7.72701,0.72156 -8.41961,0.57 -11.22419,-2.45619 -1.64396,-1.77386 -4.07419,-5.24026 -5.40052,-7.70311 -2.41153,-4.47791 -2.41153,-4.47791 3.82726,-9.74401 14.78838,-12.48275 19.36379,-17.45145 19.36379,-21.0282 0,-1.9222 0.5625,-3.84255 1.25,-4.26745 0.6875,-0.4249 1.25,-2.06974 1.25,-3.6552 0,-1.58547 1.125,-4.31287 2.5,-6.06089 1.43223,-1.82079 2.5,-5.07098 2.5,-7.60976 0,-5.19583 1.90745,-10.04073 5.88884,-14.95757 1.57363,-1.94336 2.86116,-4.89648 2.86116,-6.5625 0,-1.666 1.0085,-4.03758 2.24111,-5.2702 5.44579,-5.44578 6.36813,-14.71777 2.57482,-25.88388 -1.02322,-3.01195 -0.76798,-4.87777 1.29681,-9.48009 2.06781,-4.60906 4.08117,-6.62659 10.29121,-10.3125 6.43175,-3.81751 8.88898,-4.58104 14.72076,-4.57418 4.88252,0.006 8.13476,0.75957 10.75029,2.49177 2.23104,1.47756 5.86511,2.48686 8.97178,2.49176 4.21138,0.006 5.73771,0.67337 7.88818,3.44574 1.46654,1.89062 3.99998,4.01237 5.62989,4.715 1.6299,0.70262 8.34584,6.44337 14.9243,12.75723 10.52456,10.10123 11.96085,11.9908 11.96085,15.73558 0,2.47822 1.30526,6.17924 3.125,8.86076 3.40291,5.01449 4.30682,14.95001 1.78826,19.656 -1.71444,3.20346 0.47058,6.08793 4.61169,6.08793 2.22547,0 5.004,2.57375 11.09694,10.27915 4.47046,5.65352 8.12811,11.35467 8.12811,12.66921 0,1.31452 4.09795,6.95454 9.10656,12.53335 5.00862,5.57881 10.14444,11.78227 11.41294,13.78549 1.26851,2.0032 4.4245,5.9407 7.01333,8.75 6.17611,6.70208 11.21717,16.33693 11.21717,21.4391 0,3.41463 1.28035,5.25417 7.8125,11.22451 4.29688,3.92731 10.71081,9.01922 14.2532,11.31537 7.33648,4.75544 11.6843,9.70844 11.6843,13.31064 0,1.35833 2.61569,6.20434 5.81264,10.76893 6.64505,9.48776 9.15131,17.3579 9.17252,28.80347 0.0149,8.00423 0.0149,8.00423 10.95234,18.90704 11.95321,11.9153 21.5625,24.20704 21.5625,27.58169 0,1.18181 3.94656,6.27937 8.77013,11.3279 4.82357,5.04853 10.80015,12.19291 13.28126,15.8764 4.1631,6.18055 4.4523,7.19788 3.74851,13.18598 -0.78689,6.69529 1.25348,11.99177 4.61959,11.99177 0.84025,0 5.09527,3.59953 9.4556,7.99896 7.68767,7.75662 7.90027,8.14479 7.01732,12.8125 -1.3775,7.28222 -1.21397,19.99235 0.38946,30.27255 1.24572,7.98665 1.16612,9.66652 -0.59967,12.65576 -1.68765,2.85698 -1.78609,4.16376 -0.57526,7.63715 1.47307,4.22568 0.26601,17.7314 -2.39059,26.74808 -2.23865,7.59812 1.15361,19.39415 8.80705,30.625 1.17128,1.71875 2.83283,5.29207 3.69235,7.94072 0.89208,2.74895 5.25828,8.86974 10.17348,14.2618 4.7359,5.19533 8.6132,10.0595 8.6162,10.80926 0,0.74977 2.1344,4.17572 4.7365,7.61322 2.7904,3.68616 6.1451,10.53496 8.1781,16.69565 3.7889,11.48222 4.6209,12.99691 14.2352,25.91562 3.6271,4.8737 6.5948,9.75463 6.5948,10.8465 0,1.09186 1.8922,3.57304 4.2049,5.51373 2.3127,1.94067 5.77,6.05975 7.6829,9.1535 1.9129,3.09375 5.0174,7.39771 6.8988,9.56435 4.0199,4.62931 14.9634,25.66223 14.9634,28.75898 0,1.17555 1.1677,4.54964 2.595,7.49798 3.3984,7.02016 2.3841,10.00135 -3.9864,11.71674 -3.0701,0.82671 -6.6946,3.1965 -9.4191,6.1584 -13.5362,14.71623 -29.6675,28.83981 -32.828,28.74221 -1.0926,-0.034 -3.9287,-1.4326 -6.3025,-3.1087 z"
       style="fill:#ed5e5e" />
    <path
       inkscape:connector-curvature="0"
       id="path4702"
       d="m 1030.7101,1000.3546 c -2.3415,-1.65393 -5.8021,-3.34648 -7.6904,-3.7612 -1.8883,-0.41474 -5.5759,-1.84644 -8.1946,-3.18156 -2.6188,-1.33513 -6.6247,-2.4275 -8.902,-2.4275 -3.5435,0 -5.691,-1.56449 -14.89364,-10.85039 -5.9142,-5.96771 -11.52576,-12.69964 -12.47014,-14.95985 -0.94438,-2.2602 -1.71705,-7.80185 -1.71705,-12.31476 0,-9.32494 -2.07694,-15.26445 -7.49588,-21.43628 -2.19142,-2.4959 -3.75732,-5.68851 -3.76182,-7.66972 -0.004,-1.8667 -0.86916,-5.04599 -1.92205,-7.06508 -1.05289,-2.01909 -2.46914,-6.14665 -3.14721,-9.17236 -1.6453,-7.34166 -12.15405,-32.25221 -14.38804,-34.10626 -1.31579,-1.092 -1.57446,-3.1525 -1.00452,-8.00173 0.93451,-7.95129 -0.33665,-10.64377 -8.48297,-17.96801 -4.2891,-3.85628 -7.45502,-8.4183 -10.95615,-15.78753 -4.17362,-8.78475 -6.03197,-11.20531 -12.19516,-15.88468 -5.33966,-4.0541 -7.70445,-6.83393 -8.90214,-10.46449 -0.89701,-2.71913 -2.89185,-6.35011 -4.43297,-8.06886 -1.54113,-1.71875 -4.14745,-5.9375 -5.79183,-9.375 -4.54311,-9.49719 -8.7849,-15.74278 -16.42843,-24.18915 -6.95529,-7.68585 -6.95529,-7.68585 -14.06321,-7.68585 -3.90936,0 -9.1273,0.84375 -11.59542,1.875 -6.77199,2.82951 -14.31708,2.395 -19.50122,-1.12307 -2.42984,-1.64893 -7.69681,-3.95126 -11.70438,-5.1163 -4.00756,-1.16502 -9.14882,-3.7534 -11.42504,-5.75193 -4.31771,-3.791 -7.55662,-4.3679 -20.95529,-3.73248 -7.68583,0.36449 -8.66838,-0.57129 -15.72951,-14.98056 -3.9972,-8.15685 -6.94947,-12.17401 -13.03317,-17.73418 -4.32595,-3.95368 -10.2527,-10.70368 -13.17058,-15 -2.91786,-4.29631 -7.19966,-9.49898 -9.51512,-11.56148 -4.73705,-4.21955 -13.46915,-17.40419 -19.16293,-28.93422 -2.08705,-4.22631 -4.62496,-8.37331 -5.6398,-9.21555 -1.01484,-0.84223 -1.84516,-2.26142 -1.84516,-3.15375 0,-2.05533 -8.61027,-19.08758 -10.12145,-20.02155 -0.6207,-0.38361 -1.13201,-1.92991 -1.13625,-3.43621 -0.004,-1.5063 -0.77039,-4.20031 -1.70255,-5.9867 -1.10989,-2.12699 -1.76738,-8.43459 -1.90501,-18.27564 -0.15807,-11.30211 -0.81757,-16.75577 -2.6602,-21.99841 -1.85772,-5.28554 -2.26664,-8.72527 -1.69149,-14.22809 0.5509,-5.27076 0.20539,-8.58118 -1.26225,-12.09375 -1.11144,-2.66005 -2.0208,-6.08402 -2.0208,-7.60883 0,-1.52482 -1.11575,-7.13493 -2.47944,-12.4669 -3.01112,-11.77339 -2.27914,-16.25405 4.26638,-26.11527 5.25426,-7.91588 4.94606,-10.04263 -2.08503,-14.38808 -3.37925,-2.0885 -5.42427,-2.39948 -11.91101,-1.81129 -8.67399,0.78654 -11.25214,-0.53928 -14.94851,-7.68728 -2.13405,-4.1268 -3.79997,-2.04447 15.6517,-19.564 6.34031,-5.71052 7.75591,-7.69336 7.75591,-10.86372 0,-2.13303 0.5625,-4.22586 1.25,-4.65076 0.6875,-0.4249 1.25,-1.74542 1.25,-2.93448 0,-1.18905 1.125,-4.36854 2.5,-7.06552 1.375,-2.69699 2.5,-6.49024 2.5,-8.42945 0,-4.3582 2.69545,-11.01718 5.35102,-13.21943 1.09356,-0.90687 2.36642,-3.43812 2.82858,-5.625 0.46217,-2.18686 1.8353,-5.10112 3.05139,-6.47612 5.05751,-5.71838 5.6738,-12.13865 2.39975,-25 -1.59672,-6.27229 1.01861,-13.34823 6.06329,-16.40465 1.88703,-1.1433 4.95507,-3.1231 6.81786,-4.39954 4.47301,-3.06506 17.88508,-3.25401 21.15146,-0.29799 1.22936,1.11256 4.90874,2.32418 8.1764,2.69249 4.6359,0.52254 6.80786,1.58859 9.88582,4.85217 2.16954,2.30039 4.72196,4.18014 5.67203,4.17724 0.95006,-0.002 4.86278,3.23148 8.6949,7.1875 3.83212,3.95603 8.69332,8.77271 10.80265,10.70376 3.03937,2.78247 4.0116,4.92322 4.6855,10.31695 0.61763,4.94324 1.52829,7.16879 3.32734,8.13162 2.20497,1.18007 2.41149,2.29006 1.88056,10.10781 -0.32802,4.83019 -0.9011,9.08686 -1.2735,9.45926 -1.63074,1.63074 2.19078,5.37475 6.73495,6.59838 2.72661,0.7342 5.49269,2.33495 6.14684,3.55722 0.65413,1.22228 3.41782,4.91909 6.14152,8.21514 2.7237,3.29605 5.28303,7.64705 5.68739,9.66889 0.44881,2.24403 4.39489,7.51793 10.12974,13.53826 5.16697,5.4242 9.39451,10.40874 9.39451,11.07675 0,0.66801 2.44943,4.22149 5.44315,7.89661 2.99374,3.67513 5.84415,7.94544 6.33424,9.48959 0.4901,1.54415 1.44437,2.80754 2.12062,2.80754 0.67626,0 2.0946,2.07033 3.15188,4.60075 2.17782,5.21227 1.71285,9.09393 -2.27878,19.02365 -2.71318,6.7494 -2.71318,6.7494 0.49189,9.5063 3.77893,3.25048 6.38406,7.71557 5.41575,9.28232 -1.18373,1.91531 0.73756,5.08698 3.08151,5.08698 1.23819,0 3.39904,-1.95969 4.82411,-4.375 2.62393,-4.44724 4.38964,-5.39185 5.80323,-3.10462 1.25426,2.02944 3.1124,0.1075 3.1124,-3.21916 0,-3.97117 1.00976,-3.85212 7.62495,0.89894 6.63618,4.76614 7.3313,5.71477 7.35591,10.03856 0.01,1.85005 0.54014,3.68573 1.17691,4.07928 0.63678,0.39355 3.42237,4.10678 6.19019,8.25163 4.90718,7.34855 5.04964,7.86778 5.72485,20.86443 0.69245,13.32834 0.69245,13.32834 10.37233,22.42145 5.32392,5.0012 10.41147,9.80779 11.30566,10.6813 3.41871,3.33961 12.7492,17.30606 12.7492,19.08376 0,1.02496 4.07813,6.38758 9.0625,11.91694 17.21566,19.09801 17.1875,19.05095 17.1875,28.72037 0,8.35433 1.71647,12.49212 5.18209,12.49212 0.68942,0 4.58675,3.17937 8.66071,7.06527 7.87804,7.51438 8.5686,9.52665 6.15614,17.93845 -0.89939,3.13595 -0.71194,8.49346 0.66678,19.05834 1.47305,11.28764 1.58369,15.32051 0.47704,17.38831 -0.87124,1.62793 -1.14865,5.2089 -0.70175,9.05841 0.40914,3.52425 -0.0802,11.38838 -1.09621,17.61622 -3.18274,19.50965 -2.24459,24.91245 6.83711,39.375 1.9427,3.09375 4.20573,7.74371 5.02893,10.33325 0.85916,2.70263 4.68482,8.02737 8.98089,12.5 4.1162,4.28546 8.5426,9.82601 9.8364,12.31233 1.2938,2.48633 3.7145,6.14258 5.3793,8.125 1.6648,1.98243 4.5813,8.38567 6.4812,14.22942 3.2526,10.00442 6.7627,16.3511 15.5551,28.125 2.0536,2.75 4.6615,7.12578 5.7953,9.72396 1.1339,2.59819 3.1071,5.28352 4.385,5.96744 1.2779,0.6839 4.6641,4.74561 7.5249,9.02602 2.8608,4.28043 6.4566,9.18883 7.9906,10.90758 5.6703,6.35321 16.8695,31.36138 17.305,38.64275 0.1387,2.3192 -0.6341,3.2396 -3.3383,3.97613 -5.0461,1.37437 -11.4545,6.60839 -15.769,12.87928 -2.0522,2.98276 -6.427,7.15319 -9.7217,9.26761 -3.2948,2.11444 -7.929,5.84463 -10.2982,8.28933 -5.0356,5.19596 -6.7057,5.37246 -12.4495,1.31516 z M 879.96727,575.98434 c 0.4249,-0.6875 0.17685,-1.25 -0.55123,-1.25 -0.72807,0 -1.32377,0.5625 -1.32377,1.25 0,0.6875 0.24805,1.25 0.55122,1.25 0.30318,0 0.89888,-0.5625 1.32378,-1.25 z m 9.375,-1.25 c 0,-0.6875 -0.24805,-1.25 -0.55123,-1.25 -0.30317,0 -0.89887,0.5625 -1.32377,1.25 -0.4249,0.6875 -0.17685,1.25 0.55122,1.25 0.72808,0 1.32378,-0.5625 1.32378,-1.25 z m -3.0736,-10.08317 c 1.46579,-2.37168 -0.67202,-2.95692 -2.84903,-0.77993 -1.94867,1.94868 -1.9521,2.1131 -0.044,2.1131 1.13799,0 2.43985,-0.59993 2.89302,-1.33317 z m -10.0514,-4.91683 c 0.4249,-0.6875 0.38779,-1.87255 -0.0825,-2.63345 -0.84015,-1.35939 -2.97801,0.72373 -3.02339,2.94595 -0.028,1.37017 2.20475,1.14552 3.10586,-0.3125 z M 863.62973,547.0927 c -1.26104,-2.0404 -3.03746,-1.13701 -3.03746,1.54469 0,2.20782 0.31235,2.39383 1.86124,1.10837 1.02367,-0.84959 1.55299,-2.04346 1.17622,-2.65306 z m 11.96254,-8.09636 c 0,-3.95835 -3.31873,-5.26829 -6.03443,-2.38185 -1.14981,1.22211 -1.4697,1.87916 -0.71086,1.46012 0.75885,-0.41904 2.02687,0.65845 2.81783,2.39441 1.70218,3.73592 3.92746,2.9015 3.92746,-1.47268 z"
       style="fill:#f30303" />
    <path
       style="fill:#9e0101"
       d="m 1030.7101,1000.3546 c -2.3415,-1.65393 -5.8021,-3.34648 -7.6904,-3.7612 -1.8883,-0.41474 -5.5759,-1.84644 -8.1946,-3.18156 -2.6188,-1.33513 -6.4706,-2.43612 -8.5596,-2.44664 -4.9484,-0.0249 -7.2773,-1.58568 -6.72333,-4.50565 0.52243,-2.75361 8.60143,-3.95254 12.84083,-1.90558 3.6158,1.74583 14.6046,2.67672 13.6657,1.15767 -0.901,-1.45787 9.3854,-12.2273 11.6788,-12.2273 0.8881,0 1.6148,-1.35123 1.6148,-3.00272 0,-2.23191 0.9914,-3.34835 3.8622,-4.34908 5.3586,-1.86803 10.9396,1.04841 11.9822,6.26146 0.7046,3.52306 1.0612,3.74556 4.8605,3.03281 2.3615,-0.44301 4.4437,-0.21319 4.9105,0.54196 1.4716,2.38113 -4.5028,10.01513 -11.679,14.92335 -3.8838,2.65634 -8.7135,6.57628 -10.7328,8.71097 -4.3689,4.61871 -6.1968,4.73481 -11.8358,0.75151 z"
       id="path4843" />
    <path
       style="fill:#9e0101"
       d="m 1040.6485,985.98434 c 1.131,0 3.0744,-1.125 4.3188,-2.5 2.0761,-2.29405 2.0878,-2.5 0.1431,-2.5 -2.5345,0 -9.5181,4.94165 -9.5181,6.73507 0,0.72264 0.643,0.62186 1.5,-0.23507 0.825,-0.825 2.4253,-1.5 3.5562,-1.5 z"
       id="path4841" />
    <path
       style="fill:#9e0101"
       d="m 984.45046,973.37502 c -3.78458,-4.52927 -6.35819,-8.82996 -6.35819,-10.625 0,-3.21601 1.81778,-4.09652 2.85844,-1.3846 0.34425,0.8971 2.99545,2.41312 5.89156,3.36892 2.89611,0.9558 5.5553,2.49261 5.9093,3.41513 0.35401,0.92254 2.26299,2.51472 4.24217,3.5382 2.74103,1.41744 3.59856,2.74682 3.59856,5.57877 0,3.49051 -0.2992,3.7179 -4.89184,3.7179 -4.45705,0 -5.45692,-0.6763 -11.25,-7.60932 z"
       id="path4839" />
    <path
       style="fill:#9e0101"
       d="m 1073.0621,966.57296 c -1.3497,-1.62625 -1.3954,-2.82566 -0.2257,-5.92456 1.162,-3.0783 1.124,-4.29101 -0.1829,-5.8373 -4.3181,-5.10929 -6.8342,-19.45176 -3.4124,-19.45176 2.9763,0 12.6007,21.67126 13.0457,29.375 0.1516,2.62443 -0.4373,3.18527 -3.676,3.50133 -2.4155,0.23572 -4.4888,-0.38553 -5.5487,-1.66271 z"
       id="path4837" />
    <path
       style="fill:#9e0101"
       d="m 976.12492,942.54684 c -0.47696,-2.69157 -2.49086,-6.44054 -4.7297,-8.80453 -3.26479,-3.4473 -3.5964,-4.31362 -2.0385,-5.32565 1.0233,-0.66474 3.54805,-1.06207 5.61055,-0.88297 2.92654,0.25413 3.75806,0.93363 3.78671,3.09438 0.0202,1.5228 1.56707,4.36608 3.4375,6.3184 4.32895,4.51845 4.2775,6.0203 -0.28713,8.38077 -4.91573,2.54202 -4.82888,2.5838 -5.77943,-2.7804 z"
       id="path4835" />
    <path
       style="fill:#9e0101"
       d="m 966.42822,922.52812 c -1.77152,-8.74833 -5.69626,-21.44007 -8.20826,-26.54378 -1.52273,-3.09375 -4.94724,-9.84375 -7.61004,-15 -3.78305,-7.32549 -4.8704,-10.87798 -4.97385,-16.25 -0.15712,-8.15975 -1.26449,-10.27377 -9.13514,-17.43955 -4.16167,-3.78897 -7.44469,-8.54367 -10.8538,-15.71925 -4.13461,-8.70262 -6.00749,-11.1376 -12.15866,-15.80785 -5.33966,-4.0541 -7.70445,-6.83393 -8.90214,-10.46449 -0.89701,-2.71913 -2.89185,-6.35011 -4.43297,-8.06886 -1.54113,-1.71875 -4.13541,-5.9375 -5.76509,-9.375 -1.62968,-3.4375 -4.27545,-8.2087 -5.87951,-10.60267 -1.60408,-2.39397 -2.91649,-5.33843 -2.91649,-6.54325 0,-4.9655 -7.10508,-15.8904 -14.056,-21.61278 -6.7306,-5.541 -7.39045,-5.80407 -12.46294,-4.96868 -2.94584,0.48514 -7.17438,1.6301 -9.39677,2.54434 -7.09823,2.92006 -31.43283,1.87786 -34.20716,-1.46501 -0.78828,-0.94983 -2.62999,-1.72684 -4.09268,-1.72669 -2.4721,2.4e-4 -16.54125,-4.23231 -20.78065,-6.25164 -1.02916,-0.49021 -3.85907,-4.76857 -6.28871,-9.50746 -3.43398,-6.69783 -5.45253,-9.12611 -9.0663,-10.90661 -4.81068,-2.37022 -5.57054,-4.27659 -3.35481,-8.41673 1.6485,-3.08025 -0.2126,-3.19795 -5.08219,-0.32141 -3.54214,2.09239 -3.56225,2.08502 -10.50536,-3.84666 -3.82604,-3.26868 -6.95643,-6.49794 -6.95643,-7.17613 0,-1.31684 -3.97124,-5.90372 -11.55918,-13.35117 -5.3684,-5.269 -14.16906,-18.56952 -19.70586,-29.78167 -2.08705,-4.22631 -4.62496,-8.37331 -5.6398,-9.21555 -1.01484,-0.84223 -1.84516,-2.26142 -1.84516,-3.15375 0,-2.05533 -8.61027,-19.08758 -10.12145,-20.02155 -1.75266,-1.0832 -1.24456,-10.81702 0.74645,-14.29993 2.45998,-4.30329 2.32783,-7.49178 -0.3125,-7.53975 -2.05826,-0.0374 -2.06118,-0.13574 -0.0491,-1.66438 1.17608,-0.89354 2.72162,-2.98502 3.43451,-4.64775 0.71288,-1.66271 1.77257,-3.86687 2.35486,-4.89812 2.8506,-5.04852 3.94726,-7.62182 3.94726,-9.26214 0,-0.98783 1.37779,-3.43346 3.06177,-5.43475 3.36817,-4.00284 7.72351,-4.26331 15.06323,-0.90086 2.0625,0.94486 5.31678,2.04411 7.23172,2.44276 2.10891,0.43902 3.92603,1.89346 4.6086,3.68876 2.15874,5.67793 10.50756,9.19584 12.08264,5.09123 0.39574,-1.03125 2.25039,-1.875 4.12147,-1.875 3.61335,0 14.86987,6.74645 15.94911,9.55888 0.41696,1.08662 1.71508,1.40403 3.70225,0.90528 2.10599,-0.52856 5.73474,0.54601 11.63811,3.4464 9.85373,4.84122 10.83943,6.73129 10.18434,19.5282 -0.37006,7.22889 -0.10975,8.1444 3.47838,12.231 2.13311,2.42947 3.87838,5.2035 3.87838,6.1645 0,0.961 1.12369,2.10391 2.4971,2.53981 1.3734,0.4359 2.84104,2.16296 3.26143,3.83793 1.06166,4.23 7.46065,9.288 11.75044,9.288 2.74222,0 3.65953,0.64746 3.96659,2.79972 0.23311,1.63389 1.44048,2.98295 2.89944,3.23973 1.375,0.24198 3.78839,1.79461 5.36309,3.45026 1.5747,1.65566 3.56779,3.01029 4.42909,3.01029 1.83339,0 12.48222,10.98038 13.68265,14.10866 0.52577,1.37015 2.18639,2.14134 4.61095,2.14134 2.47706,0 3.78922,0.62773 3.78922,1.81278 0,2.26464 10.37004,11.07739 14.10479,11.98665 1.86414,0.45384 2.89963,1.78308 3.16589,4.06397 0.36857,3.1575 0.71087,3.33982 5,2.6633 3.98292,-0.62824 4.77302,-0.33365 5.85432,2.18283 0.6875,1.6 2.66462,3.19178 4.39359,3.53728 1.72898,0.3455 4.75715,1.75319 6.72928,3.12819 6.43621,4.48745 20.10387,19.55182 21.10037,23.25666 0.53529,1.99009 1.50521,3.61834 2.1554,3.61834 0.65019,0 2.0548,1.6875 3.12136,3.75 1.06657,2.0625 2.76374,3.75 3.77152,3.75 1.00776,0 2.53487,1.125 3.39357,2.5 0.8587,1.375 2.13093,2.5 2.82715,2.5 1.68155,0 8.23265,7.0095 10.38416,11.11076 0.94182,1.79534 2.32958,8.09981 3.08389,14.00996 1.36816,10.71964 1.36144,10.76969 -2.77146,20.625 -2.27863,5.4336 -5.1939,11.92461 -6.47839,14.42446 -2.84696,5.54073 -2.87117,6.448 -0.31584,11.83298 1.11078,2.34079 1.70422,5.46197 1.31875,6.93597 -1.03027,3.93979 3.63707,12.08567 8.60377,15.01609 3.74406,2.20905 4.30788,3.18218 4.30788,7.4352 0,5.01675 1.91614,9.7112 4.6875,11.48419 2.24369,1.4354 1.93225,3.81819 -0.98356,7.52502 -1.88909,2.40159 -2.23517,3.81589 -1.34124,5.48108 0.66264,1.23436 1.52995,3.28206 1.92737,4.55046 0.39739,1.2684 1.90858,2.61633 3.3582,2.99541 2.32232,0.6073 2.5595,1.36475 1.99512,6.37178 -0.46205,4.09935 0.003,6.88226 1.66747,9.98872 1.43707,2.68123 2.04564,5.61789 1.61278,7.78223 -0.58531,2.92657 -0.10487,3.78131 3.0391,5.40714 6.54196,3.38298 6.17103,7.39382 -1.2216,13.20887 -3.21289,2.52725 -3.21289,2.52725 -3.90519,-0.89154 z"
       id="path4833" />
    <path
       style="fill:#9e0101"
       d="m 695.53837,537.7944 c -0.99149,-1.19468 -2.70437,-1.70253 -4.34959,-1.28961 -2.49601,0.62646 -2.9271,-0.19538 -5.36717,-10.23214 -3.1636,-13.01288 -2.57973,-16.94865 3.98066,-26.83228 2.497,-3.76188 4.54,-7.24193 4.54,-7.73345 0,-0.49151 -2.57829,-3.36401 -5.72954,-6.38333 -3.15125,-3.01933 -5.38557,-6.04623 -4.96517,-6.72645 0.43452,-0.70308 3.3294,-0.93298 6.70861,-0.53275 4.55028,0.53891 6.33371,0.23472 7.60501,-1.2971 2.08451,-2.51169 0.90155,-6.00014 -1.6966,-5.00314 -2.6468,1.01567 -2.41585,-1.63306 0.46131,-5.29079 1.80432,-2.2938 2.13262,-3.86074 1.3508,-6.44716 -1.37403,-4.54558 -3.77618,-14.2098 -4.10019,-16.49571 -0.42323,-2.98587 8.11847,-6.20459 16.8231,-6.33937 17.70889,-0.27418 27.74176,0.81317 29.11271,3.15518 0.71772,1.22611 3.41434,4.3584 5.99246,6.96064 2.57813,2.60225 4.6875,5.1671 4.6875,5.69968 0,1.80135 -6.67772,10.61867 -8.97178,11.8464 -1.47237,0.788 -2.28387,2.64069 -2.29418,5.23779 -0.009,2.21019 -1.41503,8.39933 -3.125,13.75365 -1.70997,5.35431 -3.10904,12.42599 -3.10904,15.71483 0,3.28883 -0.85945,8.50203 -1.90988,11.58488 -2.35375,6.90787 -8.70761,14.84017 -11.88715,14.84017 -1.30076,0 -2.95687,1.1059 -3.68025,2.45755 -0.72998,1.36398 -3.66972,3.07273 -6.60648,3.84008 -2.91018,0.7604 -5.85374,2.04514 -6.54124,2.85495 -3.35709,3.9544 -5.25001,4.6804 -6.9289,2.65748 z"
       id="path4700" />
    <path
       style="fill:#610000"
       d="m 685.95847,527.54684 c -0.51229,-1.89063 -0.94489,-7.375 -0.96131,-12.1875 -0.0285,-8.34163 0.2265,-9.11462 5.46372,-16.5625 5.49362,-7.8125 5.49362,-7.8125 13.29374,-7.8125 7.01846,0 8.01327,-0.32532 9.92715,-3.24624 1.93416,-2.95193 1.95789,-3.71691 0.26164,-8.4375 -4.26077,-11.85744 -5.46898,-14.57214 -7.46932,-16.78248 -1.15617,-1.27756 -2.39006,-4.11405 -2.74197,-6.30331 -1.97304,-12.27421 -2.32149,-11.15149 3.48602,-11.23206 2.88702,-0.0401 8.62413,-0.13118 12.74913,-0.20249 4.125,-0.0714 9.75,0.67025 12.5,1.64793 4.1909,1.48992 5.27605,2.62202 6.70593,6.99612 1.58882,4.8603 1.52446,5.41173 -0.9375,8.03235 -1.45389,1.54759 -2.64343,3.49671 -2.64343,4.33139 0,0.83466 -1.78275,5.01716 -3.96167,9.29444 -3.58188,7.0313 -4.01084,9.09502 -4.47457,21.52685 -0.51291,13.75 -0.51291,13.75 -7.26179,20.3125 -3.71187,3.60937 -7.51738,6.5625 -8.45668,6.5625 -0.9393,0 -2.72593,1.125 -3.97029,2.5 -1.66211,1.83661 -3.84996,2.5 -8.24496,2.5 -3.29038,0 -6.33014,0.5625 -6.75504,1.25 -1.61143,2.60733 -5.57008,1.2769 -6.5088,-2.1875 z"
       id="path4698" />
  </g>
</svg>
